<?xml version="1.0" encoding="UTF-8"?><svg xmlns="http://www.w3.org/2000/svg" xmlns:xlink="http://www.w3.org/1999/xlink" height="36.0" preserveAspectRatio="xMidYMid meet" version="1.0" viewBox="4.0 4.0 40.0 36.0" width="40.0" zoomAndPan="magnify"><g id="change1_1"><circle cx="24" cy="24" fill="inherit" r="6.4"/></g><g id="change1_2"><path d="M18 4l-3.66 4h-6.34c-2.21 0-4 1.79-4 4v24c0 2.21 1.79 4 4 4h32c2.21 0 4-1.79 4-4v-24c0-2.21-1.79-4-4-4h-6.34l-3.66-4h-12zm6 30c-5.52 0-10-4.48-10-10s4.48-10 10-10 10 4.48 10 10-4.48 10-10 10z" fill="inherit"/></g></svg>